<?xml version="1.0" encoding="UTF-8"?>
<!DOCTYPE svg PUBLIC "-//W3C//DTD SVG 1.1//EN" "http://www.w3.org/Graphics/SVG/1.1/DTD/svg11.dtd">
<svg version="1.1" xmlns="http://www.w3.org/2000/svg" xmlns:xlink="http://www.w3.org/1999/xlink" x="0" y="0" width="276" height="276" viewBox="0, 0, 276, 276">
  <g id="Layer_2">
    <path d="M138,0.401 C213.994,0.401 275.599,62.006 275.599,138 C275.599,213.994 213.994,275.599 138,275.599 C62.006,275.599 0.401,213.994 0.401,138 C0.401,62.006 62.006,0.401 138,0.401 z M138,11.748 C68.273,11.748 11.748,68.273 11.748,138 C11.748,207.727 68.273,264.252 138,264.252 C207.727,264.252 264.252,207.727 264.252,138 C264.252,68.273 207.727,11.748 138,11.748 z" fill="#FF6F6F"/>
    <path d="M192.121,41.925 C206.48,41.925 221.268,55.649 221.268,70.008 L221.268,198.297 C221.268,212.657 208.608,226.381 194.248,226.381 L83.404,226.806 C69.045,226.806 55.321,213.295 55.321,198.936 L55.108,70.221 C55.109,55.861 69.258,41.925 83.617,41.925 L192.121,41.925 z M191.695,54.264 L85.532,54.264 C73.018,54.264 67.661,64.728 67.661,77.242 L67.235,199.574 C67.235,212.088 74.295,217.658 86.809,217.658 L192.759,217.445 C205.273,217.445 211.907,210.599 211.907,198.085 L211.694,76.391 C211.694,63.877 204.209,54.264 191.695,54.264 z" fill="#F66F6F"/>
    <path d="M187.568,63.369 C196.095,63.369 203.008,70.207 203.008,78.643 L203.008,165.189 C203.008,173.625 196.095,180.464 187.568,180.464 L92.718,180.463 C84.191,180.464 77.278,173.625 77.278,165.189 L77.278,78.643 C77.278,70.207 84.191,63.369 92.718,63.369 L187.568,63.369 z M116.769,103.771 C108.121,103.771 101.111,110.782 101.111,119.429 C101.111,128.077 108.121,135.087 116.769,135.087 C124.746,134.685 131.053,129.416 132.269,121.406 L154.435,121.406 L154.435,125.812 L159.83,125.812 L159.83,121.406 L164.749,121.406 L164.749,132.355 L170.145,132.355 L170.145,121.406 L174.281,121.406 L174.281,116.668 L132.109,116.668 C130.681,109.662 125.441,104.864 118.37,103.852 L116.769,103.771 z M116.769,108.772 C122.655,108.772 127.426,113.544 127.426,119.429 C127.426,125.315 122.655,130.087 116.769,130.086 C110.883,130.087 106.112,125.315 106.112,119.429 C106.112,113.544 110.883,108.772 116.769,108.772 L116.769,108.772 z" fill="#F66F6F"/>
  </g>
</svg>
